<svg width="47" height="50" viewBox="0 0 47 50" fill="none" xmlns="http://www.w3.org/2000/svg">
<path d="M22.5682 46L23.0149 37.4342C23.0214 37.2934 22.9962 37.1528 22.9412 37.023C22.8862 36.8932 22.8027 36.7773 22.697 36.684C22.5913 36.5906 22.466 36.5222 22.3304 36.4837C22.1947 36.4452 22.0521 36.4376 21.9131 36.4615L13.3871 37.9603L14.5385 34.7841C14.5852 34.6577 14.5911 34.5199 14.5555 34.39C14.5199 34.26 14.4446 34.1445 14.3399 34.0596L5 26.4963L7.10422 25.5136C7.24633 25.4465 7.35904 25.3298 7.42118 25.1854C7.48332 25.041 7.49061 24.8789 7.44169 24.7295L5.59553 19.0521L10.9752 20.1935C11.1209 20.2239 11.2727 20.203 11.4048 20.1342C11.5368 20.0655 11.641 19.9532 11.6998 19.8164L12.7419 17.3648L16.9404 21.871C17.0364 21.9722 17.1627 22.0396 17.3002 22.0631C17.4378 22.0865 17.5792 22.0647 17.7033 22.001C17.8275 21.9373 17.9276 21.835 17.9887 21.7096C18.0498 21.5841 18.0685 21.4422 18.0422 21.3052L16.0174 10.8635L19.263 12.7395C19.3392 12.7841 19.4238 12.8127 19.5115 12.8233C19.5992 12.834 19.6881 12.8265 19.7728 12.8014C19.8574 12.7762 19.9361 12.734 20.0037 12.6772C20.0714 12.6205 20.1267 12.5505 20.1663 12.4715L23.4615 6L26.7568 12.4715C26.7963 12.5505 26.8516 12.6205 26.9193 12.6772C26.987 12.734 27.0656 12.7762 27.1503 12.8014C27.235 12.8265 27.3239 12.834 27.4116 12.8233C27.4993 12.8127 27.5838 12.7841 27.66 12.7395L30.9057 10.8635L28.8809 21.3052C28.8545 21.4422 28.8733 21.5841 28.9344 21.7096C28.9955 21.835 29.0956 21.9373 29.2197 22.001C29.3438 22.0647 29.4853 22.0865 29.6228 22.0631C29.7604 22.0396 29.8866 21.9722 29.9826 21.871L34.1811 17.3648L35.2233 19.8164C35.282 19.9532 35.3863 20.0655 35.5183 20.1342C35.6504 20.203 35.8021 20.2239 35.9479 20.1935L41.3275 19.0521L39.4814 24.7295C39.4325 24.8789 39.4398 25.041 39.5019 25.1854C39.564 25.3298 39.6767 25.4465 39.8189 25.5136L41.9231 26.4963L32.5831 34.0596C32.4785 34.1445 32.4031 34.26 32.3675 34.39C32.3319 34.5199 32.3379 34.6577 32.3846 34.7841L33.536 37.9603L25.0099 36.4615C24.8709 36.4376 24.7284 36.4452 24.5927 36.4837C24.4571 36.5222 24.3318 36.5906 24.226 36.684C24.1203 36.7773 24.0369 36.8932 23.9819 37.023C23.9269 37.1528 23.9017 37.2934 23.9082 37.4342L24.3548 46H22.5682Z" fill="#CA0101"/>
<path fill-rule="evenodd" clip-rule="evenodd" d="M21.5147 46.9999L22.0122 37.4594L11.8579 39.2444L13.5135 34.6771L3.12769 26.2669L6.39402 24.7415L4.10896 17.7144L10.8946 19.1541L12.4239 15.5565L16.8247 20.2797L14.6179 8.89959L19.4428 11.6883L23.4615 3.79614L27.4802 11.6883L32.3051 8.89959L30.0983 20.2797L34.499 15.5565L36.0284 19.1541L42.814 17.7144L40.5289 24.7415L43.7953 26.2669L33.4094 34.6771L35.0651 39.2444L24.9108 37.4594L25.4083 46.9999H21.5147ZM25.0099 36.4615L33.536 37.9603L32.3846 34.7841C32.3379 34.6577 32.3319 34.5199 32.3675 34.39C32.4031 34.26 32.4785 34.1445 32.5831 34.0596L41.9231 26.4963L39.8189 25.5136C39.6767 25.4465 39.564 25.3298 39.5019 25.1854C39.4398 25.041 39.4325 24.8789 39.4814 24.7295L41.3275 19.0521L35.9479 20.1935C35.8021 20.2239 35.6504 20.203 35.5183 20.1342C35.3863 20.0655 35.282 19.9532 35.2233 19.8164L34.1811 17.3648L29.9826 21.871C29.8866 21.9722 29.7604 22.0396 29.6228 22.0631C29.4853 22.0865 29.3438 22.0647 29.2197 22.001C29.0956 21.9373 28.9955 21.835 28.9344 21.7096C28.8733 21.5841 28.8545 21.4422 28.8809 21.3052L30.9057 10.8635L27.66 12.7395C27.5838 12.7841 27.4993 12.8127 27.4116 12.8233C27.3239 12.834 27.235 12.8265 27.1503 12.8014C27.0656 12.7762 26.987 12.734 26.9193 12.6772C26.8516 12.6205 26.7963 12.5505 26.7568 12.4715L23.4615 6L20.1663 12.4715C20.1267 12.5505 20.0714 12.6205 20.0037 12.6772C19.9361 12.734 19.8574 12.7762 19.7728 12.8014C19.6881 12.8265 19.5992 12.834 19.5115 12.8233C19.4238 12.8127 19.3392 12.7841 19.263 12.7395L16.0174 10.8635L18.0422 21.3052C18.0685 21.4422 18.0498 21.5841 17.9887 21.7096C17.9276 21.835 17.8275 21.9373 17.7033 22.001C17.5792 22.0647 17.4378 22.0865 17.3002 22.0631C17.1627 22.0396 17.0364 21.9722 16.9404 21.871L12.7419 17.3648L11.6998 19.8164C11.641 19.9532 11.5368 20.0655 11.4048 20.1342C11.2727 20.203 11.1209 20.2239 10.9752 20.1935L5.59553 19.0521L7.44169 24.7295C7.49061 24.8789 7.48332 25.041 7.42118 25.1854C7.35904 25.3298 7.24633 25.4465 7.10422 25.5136L5 26.4963L14.3399 34.0596C14.4446 34.1445 14.5199 34.26 14.5555 34.39C14.5911 34.5199 14.5852 34.6577 14.5385 34.7841L13.3871 37.9603L21.9131 36.4615C22.0521 36.4376 22.1947 36.4452 22.3304 36.4837C22.466 36.5222 22.5913 36.5906 22.697 36.684C22.8027 36.7773 22.8862 36.8932 22.9412 37.023L22.9419 37.0248C22.9964 37.1541 23.0213 37.294 23.0149 37.4342L22.5682 46H24.3548L23.9082 37.4342C23.9017 37.294 23.9266 37.1541 23.9811 37.0248L23.9819 37.023C24.0369 36.8932 24.1203 36.7773 24.226 36.684C24.3318 36.5906 24.4571 36.5222 24.5927 36.4837C24.7284 36.4452 24.8709 36.4376 25.0099 36.4615Z" fill="#CA0101"/>
<path d="M26.9062 46.9218L26.5069 39.263L34.8054 40.7217C35.3327 40.8144 35.8695 40.619 36.2138 40.209C36.5581 39.799 36.6578 39.2365 36.4753 38.7332L35.1838 35.1704L44.7392 27.4326C45.1411 27.1072 45.347 26.5977 45.2841 26.0845C45.2213 25.5712 44.8985 25.1265 44.4299 24.9078L42.3657 23.9438L44.2405 18.1782C44.4062 17.6686 44.2875 17.1093 43.929 16.711C43.5706 16.3127 43.0269 16.1358 42.5027 16.247L36.9255 17.4304L35.8795 14.9697C35.6808 14.5023 35.259 14.1671 34.7588 14.0792C34.2585 13.9912 33.7478 14.1624 33.4016 14.534L32.5667 15.43L33.7777 9.18514C33.8895 8.6082 33.6542 8.01907 33.1756 7.67801C32.697 7.33696 32.0633 7.30682 31.5545 7.60091L28.0991 9.59806L24.7982 3.1155C24.5422 2.61273 24.0257 2.29614 23.4615 2.29614C22.8973 2.29614 22.3808 2.61273 22.1248 3.1155L18.8239 9.59806L15.3685 7.60091C14.8597 7.30682 14.226 7.33696 13.7474 7.67801C13.2688 8.01907 13.0334 8.6082 13.1453 9.18514L14.3563 15.43L13.5214 14.534C13.1752 14.1624 12.6644 13.9912 12.1642 14.0792C11.6639 14.1671 11.2422 14.5023 11.0435 14.9697L9.99744 17.4304L4.42029 16.247C3.8961 16.1358 3.35239 16.3127 2.99394 16.711C2.6355 17.1093 2.51677 17.6686 2.68248 18.1782L4.55729 23.9438L2.49301 24.9078C2.02449 25.1265 1.70169 25.5712 1.63882 26.0845C1.57594 26.5977 1.78185 27.1072 2.18371 27.4326L11.7392 35.1704L10.4477 38.7332C10.2652 39.2365 10.3649 39.799 10.7092 40.209C11.0535 40.619 11.5902 40.8144 12.1176 40.7217L20.4161 39.263L20.0167 46.9218C19.9953 47.3327 20.1435 47.7342 20.4267 48.0326C20.71 48.331 21.1033 48.4999 21.5147 48.4999H25.4083C25.8197 48.4999 26.213 48.331 26.4962 48.0326C26.7794 47.7342 26.9277 47.3327 26.9062 46.9218Z" stroke="#F5F5F5" stroke-width="3" stroke-linejoin="round"/>
</svg>
