<svg width="70" height="24" viewBox="0 0 70 24" fill="none" xmlns="http://www.w3.org/2000/svg">
<path fill-rule="evenodd" clip-rule="evenodd" d="M3.23707 12.9455C4.09242 12.9455 5.05957 13.3051 5.57115 14.0166H5.63507V13.1294H7.95313V20.4271C7.95313 22.849 5.9549 24 3.97249 24C2.04633 24 0.167813 22.905 0.151772 20.8508H2.45377C2.50979 21.7698 3.17315 22.1935 3.94065 22.1935C4.7079 22.1935 5.49119 21.7219 5.49119 20.5549V19.436H5.42727C4.90779 20.0593 4.0364 20.395 3.23707 20.395C1.29487 20.395 0 18.5407 0 16.6463C0 14.752 1.29487 12.9455 3.23707 12.9455ZM26.225 13.1215V17.2539C26.225 17.8694 26.7045 18.3649 27.3039 18.3649C27.9034 18.3649 28.3831 17.8694 28.3831 17.2539V13.1215H30.8448V17.2139C30.8448 19.3081 29.4061 20.587 27.3039 20.587C25.2418 20.587 23.7631 19.356 23.7631 17.2139V13.1215H26.225ZM66.1097 12.9295C68.252 12.9295 69.9546 14.5282 69.9546 16.7663C69.9546 16.9748 69.9353 17.1512 69.9193 17.2659L69.9147 17.3018H64.7751C64.863 18.2369 65.4464 18.7645 66.1579 18.7645C66.5546 18.7645 66.9586 18.6044 67.3073 18.2213L67.3567 18.1651H69.7307C69.1153 19.8116 67.6126 20.5788 66.1097 20.5788C64.1836 20.5788 62.2651 19.3081 62.2651 16.7663C62.2651 14.5282 63.9676 12.9295 66.1097 12.9295ZM13.0127 12.8656C15.2429 12.8656 17.0651 14.4403 17.0651 16.7103C17.0651 18.9804 15.2429 20.5549 13.0127 20.5549C10.7907 20.5549 8.99233 18.9962 8.99233 16.7103C8.99233 14.4243 10.7907 12.8656 13.0127 12.8656ZM48.4375 8.70927V20.395H46.1195V19.4278H46.0556C45.4241 20.1393 44.5448 20.5389 43.6576 20.5389C41.6594 20.5389 40.3324 18.7166 40.3324 16.7423C40.3324 14.7681 41.6594 12.9535 43.6576 12.9535C44.4249 12.9535 45.3441 13.2412 45.9117 13.9287H45.9756V8.70927H48.4375ZM21.5492 8.50147C22.0047 8.50147 22.4763 8.55727 22.8841 8.65327V10.6435C22.7002 10.5957 22.5563 10.5715 22.3964 10.5715C21.7331 10.5715 21.1575 10.8435 21.1575 11.7225V13.1294H22.6602V15.1197H21.1575V20.395H18.6956V15.1197H17.6246V13.1294H18.6956V11.2111C18.6956 9.39653 19.9826 8.50147 21.5492 8.50147ZM36.6719 12.9295C38.0307 12.9295 39.2935 13.8887 39.2935 15.7591V20.395H36.8318V16.2707C36.8318 15.5432 36.3441 15.0558 35.7287 15.0558C35.1132 15.0558 34.6255 15.5593 34.6255 16.2707V20.395H32.1639V13.1294H34.4817V14.0405H34.5456C35.0971 13.2893 35.9764 12.9295 36.6719 12.9295ZM58.6845 12.9295C59.9873 12.9295 61.2264 13.9048 61.2264 15.7352V20.395H58.7645V16.1829C58.7645 15.5032 58.3168 15.0558 57.7573 15.0558C57.1897 15.0558 56.7421 15.5113 56.7421 16.1829V20.395H54.2804V16.1829C54.2804 15.5032 53.8327 15.0558 53.2733 15.0558C52.7057 15.0558 52.258 15.5113 52.258 16.1829V20.395H49.7961V13.1294H52.1141V14.0405H52.1781C52.6657 13.3051 53.489 12.9377 54.2723 12.9377C55.0316 12.9377 55.8231 13.3372 56.3025 14.1925H56.3665C56.9741 13.3211 57.8452 12.9295 58.6845 12.9295ZM44.3691 15.1116C43.4659 15.1116 42.7304 15.847 42.7304 16.7502C42.7304 17.6535 43.4659 18.3967 44.3691 18.3967C45.2723 18.3967 46.0075 17.6535 46.0075 16.7502C46.0075 15.847 45.2723 15.1116 44.3691 15.1116ZM13.0287 15.0558C12.1415 15.0558 11.4221 15.791 11.4221 16.7103C11.4221 17.6295 12.1415 18.3649 13.0287 18.3649C13.9159 18.3649 14.6353 17.6295 14.6353 16.7103C14.6353 15.791 13.9159 15.0558 13.0287 15.0558ZM3.96459 15.1116C3.10133 15.1116 2.398 15.807 2.398 16.6703C2.398 17.5335 3.10133 18.2369 3.96459 18.2369C4.82784 18.2369 5.52327 17.5335 5.52327 16.6703C5.52327 15.807 4.82784 15.1116 3.96459 15.1116ZM66.1258 14.736C65.4784 14.736 64.9269 15.1515 64.7431 15.983H67.4687C67.3167 15.1676 66.7733 14.736 66.1258 14.736ZM68.746 10.6793L69.2 12.0137L69.6506 10.6793H69.9546V12.2575H69.75V11.3259C69.75 11.2938 69.7513 11.2405 69.7526 11.166C69.754 11.0915 69.7547 11.0115 69.7547 10.9263L69.304 12.2575H69.092L68.6373 10.9263V10.9747C68.6373 11.0135 68.6386 11.0722 68.6406 11.1514C68.6426 11.2307 68.644 11.2887 68.644 11.3259V12.2575H68.4393V10.6793H68.746ZM68.2487 10.6793V10.8674H67.7166V12.2575H67.5007V10.8674H66.9687V10.6793H68.2487ZM34.9772 6.92033C37.7449 6.92033 40.1594 8.42473 41.4526 10.6593H28.5021C29.7952 8.42473 32.2097 6.92033 34.9772 6.92033ZM42.4153 3.33479C42.895 2.85505 43.6798 2.85505 44.1593 3.33479C44.6391 3.81429 44.6391 4.59907 44.1593 5.07882L42.3005 6.9376C41.821 7.41707 41.0363 7.41707 40.5565 6.9376L40.5142 6.89313C40.0775 6.41057 40.0915 5.65854 40.5565 5.19357L42.4153 3.33479ZM25.8465 3.2925C26.3291 2.85549 27.0811 2.86958 27.5461 3.33479L29.4051 5.19357C29.8846 5.67307 29.8846 6.45785 29.4051 6.9376C28.9253 7.41707 28.1405 7.41707 27.6611 6.9376L25.802 5.07882C25.3225 4.59907 25.3225 3.81429 25.802 3.33479L25.8465 3.2925ZM34.9617 0L35.0149 0.00114522C35.6689 0.0292969 36.1949 0.572871 36.1949 1.23343V3.86193C36.1949 4.54033 35.6401 5.09535 34.9617 5.09535C34.2835 5.09535 33.7285 4.54033 33.7285 3.86193V1.23343C33.7285 0.555017 34.2835 0 34.9617 0Z" fill="#02A95C"/>
</svg>
