<svg viewBox="0 0 73 58" fill="none" xmlns="http://www.w3.org/2000/svg">
<path fill-rule="evenodd" clip-rule="evenodd" d="M18.2909 31.2612L18.2561 31.3197H16.8665L10.2915 48.9944H2.76119C0.79355 48.9944 -0.541335 46.9933 0.214466 45.1766L6.33232 30.4713C2.46744 29.0573 0.535 25.5223 0.535 19.8664V10.8169C0.535 7.28199 1.61905 4.59543 3.78715 2.75726C5.95525 0.919085 8.97175 0 12.8366 0H28.8146V22.9861L26.3349 21.4608L28.3256 31.7264L25.0612 28.2227L23.3017 32.3616L18.2909 31.2612ZM18.2097 22.9065V9.04947H14.0385C13.0487 9.04947 12.3182 9.238 11.8468 9.61506C11.3755 9.99213 11.1398 10.6991 11.1398 11.736V19.725C11.1398 20.9033 11.3519 21.7282 11.7761 22.1995C12.2003 22.6708 12.9545 22.9065 14.0385 22.9065H18.2097ZM43.4442 23.124L46.3115 21.4608L44.3209 31.7264L47.5853 28.2227L49.3448 32.3616L54.0491 31.353V25.593L62.4622 48.9944H70.2391C72.1785 48.9944 73.5123 47.0457 72.8104 45.2377L64.4418 23.6842L72.0042 3.73612C72.6884 1.93136 71.3551 0 69.425 0H62.1087L54.0491 22.0581V0H43.4442V23.124Z" fill="#242436"/>
<path d="M34.514 57.0703L34.9589 51.5383C34.9654 51.398 34.9403 51.258 34.8855 51.1287C34.8307 50.9993 34.7476 50.8839 34.6423 50.791C34.537 50.698 34.4122 50.6298 34.2771 50.5915C34.1419 50.5531 33.9999 50.5456 33.8615 50.5694L26.2884 52.0623L27.4353 48.8986C27.4818 48.7727 27.4878 48.6354 27.4523 48.506C27.4168 48.3765 27.3417 48.2615 27.2376 48.1769L17.9344 40.6434L20.0303 39.6646C20.1718 39.5977 20.2841 39.4814 20.346 39.3376C20.4079 39.1938 20.4152 39.0324 20.3664 38.8836L18.5275 33.2285L23.886 34.3654C24.0312 34.3957 24.1824 34.3748 24.3139 34.3064C24.4455 34.2379 24.5493 34.126 24.6077 33.9898L25.6458 31.5478L29.8278 36.0363C29.9234 36.1371 30.0492 36.2043 30.1862 36.2276C30.3232 36.251 30.4641 36.2293 30.5877 36.1658C30.7113 36.1023 30.8111 36.0004 30.8719 35.8755C30.9328 35.7505 30.9515 35.6092 30.9252 35.4727L28.9084 25.0721L32.1413 26.9407C32.2172 26.9852 32.3014 27.0136 32.3887 27.0242C32.4761 27.0348 32.5646 27.0274 32.649 27.0023C32.7333 26.9773 32.8116 26.9352 32.879 26.8787C32.9465 26.8222 33.0016 26.7524 33.0409 26.6738L36.3232 20.2278L39.6056 26.6738C39.6449 26.7524 39.7 26.8222 39.7674 26.8787C39.8348 26.9352 39.9131 26.9773 39.9975 27.0023C40.0818 27.0274 40.1704 27.0348 40.2578 27.0242C40.3451 27.0136 40.4293 26.9852 40.5052 26.9407L43.7381 25.0721L41.7213 35.4727C41.695 35.6092 41.7137 35.7505 41.7746 35.8755C41.8354 36.0004 41.9351 36.1023 42.0588 36.1658C42.1824 36.2293 42.3233 36.251 42.4603 36.2276C42.5973 36.2043 42.723 36.1371 42.8187 36.0363L47.0006 31.5478L48.0387 33.9898C48.0972 34.126 48.201 34.2379 48.3326 34.3064C48.4641 34.3748 48.6153 34.3957 48.7604 34.3654L54.1189 33.2285L52.28 38.8836C52.2313 39.0324 52.2386 39.1938 52.3005 39.3376C52.3624 39.4814 52.4746 39.5977 52.6162 39.6646L54.7121 40.6434L45.4089 48.1769C45.3047 48.2615 45.2296 48.3765 45.1942 48.506C45.1587 48.6354 45.1647 48.7727 45.2112 48.8986L46.358 52.0623L38.785 50.5694C38.6465 50.5456 38.5045 50.5531 38.3694 50.5915C38.2343 50.6298 38.1095 50.698 38.0042 50.791C37.8989 50.8839 37.8158 50.9993 37.761 51.1287C37.7062 51.258 37.6811 51.398 37.6876 51.5383L38.1325 57.0703H34.514Z" fill="#CA0101"/>
</svg>
