<svg viewBox="0 0 74 58" fill="none" xmlns="http://www.w3.org/2000/svg">
<path d="M54.6847 37.3887H44.0298V0H54.6847V22.1633L62.7825 0H69.8021C71.9013 0 73.3514 2.10054 72.6073 4.06341L65.1265 23.7971L73.4138 45.1423C74.1772 47.1086 72.7265 49.228 70.6172 49.228H63.1376L54.6847 25.7151V37.3887Z" fill="#242436"/>
<path d="M18.676 31.469V37.3887H29.3309V0H13.2775C9.39442 0 6.3637 0.923468 4.18536 2.77041C2.00703 4.61735 0.91786 7.31672 0.91786 10.8685V19.9612C0.91786 25.644 2.85942 29.1958 6.74254 30.6166L0.727377 45.0757C-0.0946003 47.0516 1.35724 49.228 3.49725 49.228H10.7204L17.3264 31.469H18.676ZM18.676 9.09262V23.0157H14.4851C13.3959 23.0157 12.6382 22.7789 12.212 22.3053C11.7859 21.8318 11.5728 21.003 11.5728 19.8191V11.792C11.5728 10.7501 11.8095 10.0398 12.2831 9.66091C12.7566 9.28206 13.4906 9.09262 14.4851 9.09262H18.676Z" fill="#242436"/>
<path d="M43.9553 41.9757H54.7178V54.2743C54.7178 55.9311 53.3746 57.2743 51.7178 57.2743H43.9553V41.9757Z" fill="#CA0101"/>
<path d="M18.6408 41.9756H29.4033V57.2742H21.6408C19.9839 57.2742 18.6408 55.9311 18.6408 54.2742V41.9756Z" fill="#CA0101"/>
<path d="M36.4283 54.3803L36.5324 52.3827C36.534 52.3499 36.5281 52.3171 36.5153 52.2868C36.5024 52.2565 36.483 52.2295 36.4583 52.2078C36.4337 52.186 36.4045 52.17 36.3728 52.1611C36.3412 52.1521 36.3079 52.1503 36.2755 52.1559L34.2874 52.5054L34.5558 51.7647C34.5667 51.7352 34.5681 51.7031 34.5598 51.6728C34.5515 51.6425 34.5339 51.6156 34.5096 51.5958L32.3316 49.832L32.8223 49.6029C32.8554 49.5872 32.8817 49.56 32.8962 49.5263C32.9107 49.4926 32.9124 49.4548 32.901 49.42L32.4705 48.096L33.7249 48.3622C33.7589 48.3693 33.7943 48.3644 33.8251 48.3484C33.8559 48.3323 33.8802 48.3062 33.8939 48.2743L34.1369 47.7025L35.116 48.7534C35.1383 48.777 35.1678 48.7927 35.1999 48.7982C35.2319 48.8037 35.2649 48.7986 35.2939 48.7837C35.3228 48.7688 35.3461 48.745 35.3604 48.7157C35.3746 48.6865 35.379 48.6534 35.3729 48.6214L34.9007 46.1865L35.6576 46.6239C35.6753 46.6343 35.695 46.641 35.7155 46.6435C35.7359 46.646 35.7567 46.6442 35.7764 46.6384C35.7962 46.6325 35.8145 46.6226 35.8303 46.6094C35.8461 46.5962 35.859 46.5798 35.8682 46.5614L36.6366 45.0523L37.405 46.5614C37.4142 46.5798 37.4271 46.5962 37.4429 46.6094C37.4587 46.6226 37.477 46.6325 37.4968 46.6384C37.5165 46.6442 37.5373 46.646 37.5577 46.6435C37.5782 46.641 37.5979 46.6343 37.6156 46.6239L38.3725 46.1865L37.9003 48.6214C37.8942 48.6534 37.8986 48.6865 37.9128 48.7157C37.927 48.745 37.9504 48.7688 37.9793 48.7837C38.0083 48.7986 38.0413 48.8037 38.0733 48.7982C38.1054 48.7927 38.1349 48.777 38.1572 48.7534L39.1363 47.7025L39.3793 48.2743C39.393 48.3062 39.4173 48.3323 39.4481 48.3484C39.4789 48.3644 39.5143 48.3693 39.5483 48.3622L40.8027 48.096L40.3722 49.42C40.3608 49.4548 40.3625 49.4926 40.377 49.5263C40.3915 49.56 40.4178 49.5872 40.4509 49.6029L40.9416 49.832L38.7636 51.5958C38.7392 51.6156 38.7217 51.6425 38.7134 51.6728C38.7051 51.7031 38.7065 51.7352 38.7174 51.7647L38.9858 52.5054L36.9977 52.1559C36.9653 52.1503 36.932 52.1521 36.9004 52.1611C36.8687 52.17 36.8395 52.186 36.8149 52.2078C36.7902 52.2295 36.7708 52.2565 36.7579 52.2868C36.7451 52.3171 36.7392 52.3499 36.7407 52.3827L36.8449 54.3803H36.4283Z" fill="#CA0101"/>
</svg>
