<svg width="60" height="12" viewBox="0 0 60 12" fill="none" xmlns="http://www.w3.org/2000/svg">
<path d="M0.000644066 9.59155L1.9165 7.2987C3.08935 8.19186 4.42459 8.56821 5.68378 8.56821C6.32949 8.56821 6.60981 8.39615 6.60981 8.10551V8.07329C6.60981 7.76139 6.27601 7.59964 5.12443 7.36314C2.71301 6.86823 0.592866 6.17934 0.592866 3.90776V3.87554C0.592866 1.83015 2.18587 0.247458 5.15665 0.247458C7.23426 0.247458 8.76282 0.742372 10.0111 1.72189L8.24535 4.15458C7.30435 3.47667 6.17589 3.10803 5.01616 3.09966C4.47807 3.09966 4.22997 3.28268 4.22997 3.54109V3.57331C4.22997 3.8633 4.51996 4.04696 5.66187 4.26284C8.41741 4.76871 10.2579 5.56457 10.2579 7.73948V7.76075C10.2579 10.0214 8.38906 11.3991 5.51108 11.3991C3.32649 11.4101 1.36746 10.7966 0 9.5909L0.000644066 9.59155ZM13.8428 3.4992H10.6787V0.453028H20.6027V3.4992H17.4386V11.2065H13.8428V3.4992ZM29.526 7.54616C30.8278 6.91076 31.6462 5.82362 31.6462 4.26284V4.23062C31.6462 3.12221 31.3124 2.32507 30.6667 1.67871C29.9127 0.924742 28.6967 0.451738 26.7918 0.451738H21.5397V11.2052H25.1356V8.13773H25.8999L27.9234 11.2052H32.0244L29.526 7.54616ZM28.0619 4.52125C28.0619 5.17856 27.5348 5.56521 26.6841 5.56521H25.135V3.46633H26.7073C27.5361 3.46633 28.0735 3.80014 28.0735 4.49998V4.52125H28.0619ZM37.1469 0L31.3452 11.2065H35.1989L37.1469 7.28839L39.095 11.2065H42.9487L37.1469 0ZM54.1983 0L48.3966 11.2065H52.2502L54.1983 7.28839L56.1464 11.2065H60L54.1983 0ZM45.6726 11.6479L51.4853 0.441427H47.6316L45.6836 4.3595L43.7245 0.441427H39.8709L45.6726 11.6479Z" fill="#FC6100"/>
</svg>
